<?xml version="1.0" encoding="UTF-8"?>
<svg xmlns="http://www.w3.org/2000/svg" xmlns:xlink="http://www.w3.org/1999/xlink" width="25pt" height="25pt" viewBox="0 0 25 25" version="1.1">
<g id="surface673256">
<path style="fill-rule:nonzero;fill:rgb(100%,100%,100%);fill-opacity:1;stroke-width:1;stroke-linecap:butt;stroke-linejoin:round;stroke:rgb(80%,80%,80%);stroke-opacity:1;stroke-miterlimit:10;" d="M 14.324321 78.835136 L 157.675679 78.835136 L 157.675679 93.164864 L 14.324321 93.164864 Z M 14.324321 35.845951 L 157.675679 35.845951 L 157.675679 50.175679 L 14.324321 50.175679 Z M 14.324321 121.824321 L 157.675679 121.824321 L 157.675679 136.154049 L 14.324321 136.154049 Z M 14.324321 121.824321 " transform="matrix(0.144477,0,0,0.144477,0.075,0.075)"/>
<path style=" stroke:none;fill-rule:nonzero;fill:rgb(100%,100%,100%);fill-opacity:1;" d="M 2.144531 11.464844 L 22.855469 11.464844 L 22.855469 13.535156 L 2.144531 13.535156 Z M 2.144531 5.253906 L 22.855469 5.253906 L 22.855469 7.324219 L 2.144531 7.324219 Z M 2.144531 17.675781 L 22.855469 17.675781 L 22.855469 19.746094 L 2.144531 19.746094 Z M 2.144531 17.675781 "/>
</g>
</svg>
